<svg width="109" height="85" viewBox="0 0 109 85" fill="none" xmlns="http://www.w3.org/2000/svg">
<path fill-rule="evenodd" clip-rule="evenodd" d="M107.388 33.2547C107.471 33.338 107.643 35.2301 107.892 38.931C107.976 41.7894 106.63 44.7335 103.853 47.7608C102.757 48.9364 98.97 52.2186 92.4917 57.5972C84.5794 64.2422 75.9123 70.8848 66.4852 77.5273C63.0365 79.9668 59.2496 80.764 55.1243 79.9239C51.8422 79.2504 47.6336 77.275 42.501 73.9928C40.7337 72.8172 33.6647 68.4023 21.2939 60.7482C10.7762 54.1939 4.75991 50.2432 3.24512 48.8961C1.47786 47.2991 0.425082 45.069 0.0893029 42.2107C-0.163163 39.6046 0.132222 37.4602 0.972935 35.7775C1.73032 34.3471 3.87628 32.4146 7.4108 29.9751C10.5237 27.8736 13.5962 26.0648 16.6258 24.5511C18.3098 23.7943 23.4424 20.9359 32.0262 15.9736C40.1884 11.1803 45.1115 8.44808 46.7954 7.77449C49.5726 6.59635 52.3497 6.09179 55.1268 6.26082C57.3157 6.42984 59.04 6.9344 60.3023 7.77449C60.9764 8.1958 65.647 10.2973 74.3142 14.0815C83.9079 18.3702 91.2294 21.8593 96.2787 24.5511C102.505 27.914 106.209 30.8152 107.388 33.2547Z" fill="#F0B543"/>
<path fill-rule="evenodd" clip-rule="evenodd" d="M107.893 40.0658C107.976 42.9241 106.631 45.8253 103.854 48.7694C102.844 49.7785 99.0563 52.9749 92.4922 58.356C84.9182 64.5773 76.2486 71.1365 66.4857 78.0339C63.0371 80.4734 59.2501 81.2706 55.1248 80.4305C51.8427 79.7569 47.6341 77.7791 42.5015 74.4994C41.07 73.5761 34.001 69.2015 21.2944 61.3809C10.7742 54.9906 4.7579 51.1232 3.2431 49.776C1.47584 48.1791 0.423068 45.9918 0.0872888 43.2167C-0.165177 40.6939 0.130208 38.5925 0.970915 36.9098C1.05423 38.1712 1.645 39.3064 2.73817 40.3155C3.91719 41.4079 6.2727 42.9216 9.80721 44.8566C11.5745 45.8657 18.9389 50.157 31.898 57.7253C42.5015 64.0323 48.6036 67.4785 50.2017 68.0688C53.7362 69.6683 55.8393 70.5084 56.5133 70.5916C59.2071 71.0129 62.4034 70.2536 66.107 68.3211C72.252 65.0415 81.3812 58.187 93.4995 47.7628C95.9409 45.7446 99.1371 43.1789 103.094 40.0683C105.873 37.7145 107.345 35.8628 107.512 34.5181C107.933 35.3582 108.1 36.2841 108.017 37.2932L107.893 40.0658Z" fill="#DEA435"/>
<path fill-rule="evenodd" clip-rule="evenodd" d="M21.2969 61.3837C10.7767 54.9935 4.7604 51.126 3.24561 49.7788C1.47835 48.1819 0.42557 45.9946 0.0897908 43.2196C-0.162674 40.6968 0.13271 38.5953 0.973422 36.9126C1.05673 38.174 1.6475 39.3092 2.74068 40.3184C3.91969 41.4107 6.27519 42.9244 9.80971 44.8594C11.577 45.8685 18.9414 50.1598 31.9005 57.7282C42.504 64.0352 48.6061 67.4813 50.2042 68.0716C50.9616 68.4097 52.0144 68.9117 53.36 69.5853C54.6224 70.0899 55.7585 70.4279 56.7683 70.5944C56.7683 75.7233 57.1041 79.0862 57.7782 80.6856L56.0109 80.5595L55.8847 80.4333L54.2437 80.1785L54.1174 80.0524C52.7693 79.8001 50.9616 79.129 48.6894 78.0342L48.3107 77.7794L46.9222 77.0225L46.291 76.7702L42.504 74.4997C41.0726 73.5789 34.0035 69.2044 21.2969 61.3837Z" fill="#F5C658"/>
<path fill-rule="evenodd" clip-rule="evenodd" d="M22.8117 33.5066C23.9074 34.4325 22.938 35.9032 19.9084 37.9215C17.0479 40.023 14.902 40.9488 13.4705 40.6966C12.039 40.4443 9.97891 39.5184 7.28511 37.9215C5.85615 37.1646 5.39162 36.1984 5.89655 35.0203C6.31817 34.0111 7.3255 32.9617 8.92613 31.8668C11.7866 29.8485 14.0587 28.9656 15.7427 29.2178C16.6692 29.3869 17.972 30.0579 19.6559 31.2361C20.4966 31.8239 21.5494 32.5807 22.8117 33.5066Z" fill="#D49E33"/>
<path fill-rule="evenodd" clip-rule="evenodd" d="M27.9873 21.2712C29.5021 21.0189 31.7313 21.859 34.6776 23.794C36.7806 25.2219 37.2856 26.3168 36.1924 27.0737C35.0967 27.9995 32.7008 29.5132 28.9971 31.6147C28.1564 32.1192 27.2728 32.2454 26.3462 31.9931C26.0938 31.9073 25.4197 31.5289 24.3265 30.8579L19.2772 28.0828C18.9414 27.9137 18.7294 27.6615 18.646 27.3259C18.646 26.9046 18.8152 26.5262 19.151 26.1907C19.7392 25.6861 21.1278 24.8031 23.3167 23.5417C25.758 22.1113 27.3132 21.3545 27.9873 21.2712Z" fill="#D49E33"/>
<path fill-rule="evenodd" clip-rule="evenodd" d="M49.6993 17.9913C49.6135 18.4959 48.8157 19.2527 47.3009 20.2618C45.3645 21.44 44.0617 22.2397 43.3877 22.6585C41.3679 24.0031 39.8961 24.5077 38.9695 24.1721L32.6579 20.7664C31.8172 20.1786 31.4385 19.6311 31.5218 19.1266L31.7742 18.622L39.6007 13.8287C40.2748 13.4932 41.0726 13.4074 41.9991 13.5764C42.504 13.6597 43.009 13.7858 43.5139 13.9548L45.1549 14.7117C48.2678 16.2253 49.7826 17.3177 49.6993 17.9913Z" fill="#D49E33"/>
<path fill-rule="evenodd" clip-rule="evenodd" d="M48.0583 13.7029C45.7861 12.4415 44.9454 11.6015 45.5336 11.1801C47.8058 9.83301 50.6258 8.90964 53.9912 8.40508C55.5893 8.1528 57.5686 8.57159 59.9242 9.66651C60.4291 9.91871 60.934 10.1281 61.4389 10.2972C61.6914 10.4637 61.5652 10.7588 61.0602 11.1801C57.3566 14.2075 55.2106 15.8902 54.6224 16.2257C53.7817 16.5613 51.5928 15.7212 48.0583 13.7029Z" fill="#D49E33"/>
<path fill-rule="evenodd" clip-rule="evenodd" d="M18.0149 44.9855C16.9217 44.0596 17.005 43.0102 18.2673 41.832C19.9513 40.6539 21.0015 39.8567 21.4232 39.4354C22.2639 38.7618 23.2333 38.1311 24.3265 37.5433C25.5888 36.8697 26.4296 36.577 26.8512 36.6603C28.9542 37.2481 30.9739 38.0907 32.9103 39.1831C34.7609 40.1922 36.0232 41.1181 36.6973 41.9582C37.793 43.1363 36.152 45.0284 31.7742 47.6345C28.9138 49.4862 26.9774 50.243 25.9675 49.905C24.5361 49.6527 21.8852 48.0129 18.0149 44.9855Z" fill="#D49E33"/>
<path fill-rule="evenodd" clip-rule="evenodd" d="M30.2595 34.5159C29.9237 33.9281 30.0499 33.2974 30.6382 32.6238C31.1431 32.2025 31.648 31.867 32.1529 31.6147L34.6776 29.8487C36.4449 28.6706 37.7072 27.9566 38.4646 27.7044C39.3053 27.4521 40.2318 27.495 41.2417 27.8305C41.9158 27.9995 43.2614 28.6302 45.2812 29.7226C47.0484 30.6485 48.3511 31.6147 49.1944 32.6238C49.9518 33.6329 50.1209 34.3898 49.6993 34.8943C48.437 36.1557 46.291 37.7123 43.2614 39.5615C41.8325 40.4016 40.6939 40.7371 39.8531 40.5706C39.7698 40.4874 39.0958 40.1493 37.8334 39.5615C36.9927 39.3092 35.6445 38.5524 33.794 37.291C31.7743 36.0296 30.5952 35.1037 30.2595 34.5159Z" fill="#D49E33"/>
<path fill-rule="evenodd" clip-rule="evenodd" d="M60.1766 23.0372C61.6914 23.8773 62.4059 24.6341 62.3226 25.3077C62.3226 25.56 61.9868 26.0242 61.3127 26.6952C59.3763 28.2922 57.2733 29.7226 55.0011 30.984C53.7387 31.7408 51.8882 31.3195 49.4468 29.7226C45.4907 27.7044 43.3447 26.4026 43.009 25.8123C42.7565 25.391 43.3877 24.6341 44.9025 23.5417C45.9982 22.7017 47.0484 22.0281 48.0583 21.5235C50.2471 20.6834 51.719 20.2192 52.4764 20.136C54.2437 19.9669 56.8113 20.9357 60.1766 23.0372Z" fill="#D49E33"/>
<path fill-rule="evenodd" clip-rule="evenodd" d="M65.4784 13.0721C65.7309 13.1554 67.2886 13.7861 70.149 14.9642C73.6835 16.6469 74.8221 17.9083 73.5598 18.7484C72.6333 19.5053 71.8329 20.136 71.1614 20.6405C69.9824 21.6497 68.8034 22.4065 67.6269 22.9111C66.1121 23.5846 62.7467 22.2375 57.5283 18.8746C56.94 18.4533 56.6875 17.9083 56.7709 17.2348C56.8542 16.5612 57.1496 16.0566 57.6545 15.7211L61.6939 13.1983C62.618 12.6105 63.8778 12.5676 65.4784 13.0721Z" fill="#D49E33"/>
<path fill-rule="evenodd" clip-rule="evenodd" d="M46.9222 47.3819C47.5104 47.7174 48.6465 48.3481 50.3305 49.274C51.7594 50.1998 52.5193 50.9567 52.6026 51.5445C52.6026 52.1323 51.7619 53.0582 50.078 54.3196C47.975 55.8358 46.5435 56.8852 45.7861 57.4731C43.9355 58.8177 42.2516 59.1986 40.7368 58.6083C39.1387 57.7682 36.3186 55.9594 32.2792 53.1843C31.186 52.4275 30.9739 51.6706 31.648 50.9163C32.3221 50.1595 33.7107 49.0671 35.8137 47.6367C38.0859 45.954 39.6436 45.071 40.4843 44.9877C41.8299 44.902 43.9759 45.6992 46.9222 47.3819Z" fill="#D49E33"/>
<path fill-rule="evenodd" clip-rule="evenodd" d="M65.0997 41.3272C65.438 41.8317 64.8472 42.6718 63.3324 43.85C62.9967 44.1022 61.6485 45.0281 59.293 46.625C56.685 48.222 54.6224 48.6862 53.1076 48.0126C50.3305 46.837 47.7225 45.2375 45.2812 43.2193C44.4404 42.5457 44.1451 41.915 44.3975 41.3272C44.5641 40.9916 45.0287 40.4871 45.7861 39.8135C47.2176 38.3856 49.1111 36.9955 51.4666 35.6509C53.2338 34.5585 55.4631 34.8108 58.1569 36.4077C62.3655 38.6782 64.6806 40.318 65.0997 41.3272Z" fill="#D49E33"/>
<path fill-rule="evenodd" clip-rule="evenodd" d="M71.5376 37.0386C69.3512 38.4665 66.9099 38.5523 64.2186 37.2909C62.5346 36.534 61.189 35.9033 60.1791 35.3988C58.2427 34.3897 57.2329 33.5925 57.1496 33.0021C56.9829 32.4143 57.6974 31.4885 59.2955 30.2271C60.6412 29.1347 61.8631 28.335 62.9563 27.8304C65.3143 26.6548 67.2911 26.3596 68.8892 26.9474C72.9312 28.6301 75.5795 29.9319 76.8419 30.8578C78.185 31.8669 76.4177 33.928 71.5376 37.0386Z" fill="#D49E33"/>
<path fill-rule="evenodd" clip-rule="evenodd" d="M70.2752 24.8029C69.5178 24.2151 70.9064 22.7847 74.4409 20.5142C76.2915 19.336 78.3945 19.1266 80.7526 19.8835C81.9316 20.3048 83.3605 20.9784 85.0445 21.9017C86.0518 22.323 86.8547 22.9108 87.4429 23.6677C87.9453 24.5078 87.9453 25.1814 87.4429 25.6859C84.9182 27.9564 83.1914 29.344 82.2648 29.8485C81.1716 30.5221 79.0661 29.9747 75.9532 28.2087C72.5045 26.2737 70.611 25.1385 70.2752 24.8029Z" fill="#D49E33"/>
<path fill-rule="evenodd" clip-rule="evenodd" d="M100.698 36.7861C99.6875 37.7953 98.2156 37.9643 96.2792 37.2907C95.6051 37.0384 94.0474 36.2387 91.6061 34.894C87.8191 32.7925 86.0518 31.405 86.3043 30.7314C86.4709 30.1436 87.4 29.1749 89.0814 27.8302C90.7653 26.4856 91.9014 25.812 92.4922 25.812C93.9212 25.812 96.6554 27.1163 100.698 29.7223C103.475 31.4883 103.475 33.842 100.698 36.7861Z" fill="#D49E33"/>
<path fill-rule="evenodd" clip-rule="evenodd" d="M80.5001 34.0112C81.8457 33.6756 84.075 34.3063 87.1879 35.9033C89.7126 37.1647 91.7323 38.4261 93.2471 39.6875C94.2544 40.5275 93.7949 41.8318 91.8585 43.5978C90.2579 45.1947 88.4477 46.4561 86.4305 47.382C85.0016 48.0556 83.7392 48.1817 82.6435 47.7604C82.5602 47.6746 81.6741 47.0868 79.9926 45.9944C75.2791 43.1361 72.8378 41.4105 72.6711 40.8227C72.5878 40.3182 73.7239 39.0568 76.082 37.0385C78.3541 35.1893 79.8285 34.1802 80.5001 34.0112Z" fill="#D49E33"/>
<path fill-rule="evenodd" clip-rule="evenodd" d="M73.936 57.3472C71.833 58.5253 69.7299 58.2705 67.6244 56.5904C62.575 53.9843 59.7979 52.2184 59.293 51.29C58.9572 50.7022 59.293 49.8621 60.3029 48.7672C60.8911 48.1794 61.4819 47.6723 62.0701 47.2535L65.0997 45.2353C66.2787 44.1404 68.0031 43.8048 70.2752 44.2261C71.3709 44.4784 72.3379 44.814 73.1786 45.2353L74.8196 46.2444C78.5208 48.0936 80.543 49.6502 80.8763 50.9116C81.1313 52.0922 78.8161 54.2366 73.936 57.3472Z" fill="#D49E33"/>
<path fill-rule="evenodd" clip-rule="evenodd" d="M64.0898 57.4731C64.9305 57.8944 65.645 58.6083 66.2358 59.62C66.9099 60.8814 66.867 61.888 66.1096 62.6448C65.0997 63.5707 63.7515 64.3704 62.0701 65.0414C60.2195 65.715 58.5356 66.0506 57.0208 66.0506C55.6752 66.0506 54.0316 65.377 52.0977 64.0323C50.4138 62.9374 49.2777 61.9283 48.6894 61.005C48.2678 60.3314 48.9848 59.1961 50.8354 57.5967C52.2669 56.3353 53.6125 55.3287 54.8748 54.5718C56.3063 53.815 58.2831 54.1934 60.8078 55.7071L61.8176 56.0855L64.0898 57.4731Z" fill="#D49E33"/>
<path fill-rule="evenodd" clip-rule="evenodd" d="M5.77028 35.9032C5.68697 34.725 6.73722 33.3804 8.9261 31.8667C11.7866 29.8484 14.0587 28.9655 15.7427 29.2178C16.6692 29.3868 17.972 30.0578 19.6559 31.236C20.4966 31.8238 21.5494 32.5806 22.8117 33.5065C23.4 34.0943 23.2333 34.9369 22.3068 36.0293C22.1376 35.777 22.0114 35.608 21.9281 35.5247C18.5627 32.9187 16.2047 31.4883 14.8591 31.236C13.3443 30.9837 11.0721 31.8667 8.04247 33.8849C7.03261 34.6418 6.27521 35.3153 5.77028 35.9032Z" fill="#B58325"/>
<path fill-rule="evenodd" clip-rule="evenodd" d="M34.6776 23.794C36.7806 25.2219 37.2856 26.3168 36.1924 27.0737L35.5612 27.4521C33.9631 25.5171 32.6579 24.3415 31.648 23.9202C29.1234 22.9111 26.7249 23.1633 24.4528 24.677C21.8448 26.3597 20.2038 27.5353 19.5297 28.2089L19.2772 28.0828C18.9414 27.9138 18.7294 27.6615 18.646 27.3259C18.646 26.9046 18.8152 26.5262 19.151 26.1907C19.7392 25.6861 21.1278 24.8032 23.3167 23.5418C25.758 22.1113 27.3132 21.3545 27.9873 21.2712C29.5021 21.019 31.7313 21.859 34.6776 23.794Z" fill="#B58325"/>
<path fill-rule="evenodd" clip-rule="evenodd" d="M49.6993 17.9913C49.6993 18.3268 49.3635 18.7053 48.6894 19.1266L44.3975 16.856C41.8729 15.5089 39.6436 15.3853 37.7072 16.4776L31.9005 20.1357C31.5647 19.7144 31.4385 19.336 31.5218 19.0004L31.7743 18.622L39.6007 13.8287C40.2748 13.4932 41.0726 13.4074 41.9991 13.5764C42.504 13.6597 43.009 13.7858 43.5139 13.9548L45.1549 14.7117C48.2678 16.2253 49.7826 17.3177 49.6993 17.9913Z" fill="#B58325"/>
<path fill-rule="evenodd" clip-rule="evenodd" d="M61.0602 11.1801L60.3028 11.8108C56.9375 10.5494 54.2437 10.0853 52.2239 10.4233C50.7925 10.5923 48.7727 11.3492 46.1648 12.6938C45.3241 12.106 45.112 11.6015 45.5336 11.1801C47.8058 9.83301 50.6258 8.90964 53.9912 8.40508C55.5893 8.1528 57.5686 8.57159 59.9241 9.66651C60.4291 9.91871 60.934 10.1281 61.4389 10.2972C61.6914 10.4662 61.5652 10.7588 61.0602 11.1801Z" fill="#B58325"/>
<path fill-rule="evenodd" clip-rule="evenodd" d="M25.4626 39.4354C25.2101 39.5186 23.9907 40.1493 21.8019 41.3275C20.5395 42.0011 19.4034 43.3028 18.3936 45.2378L18.0149 44.9855C16.9217 44.0597 17.005 43.0102 18.2673 41.832C19.9513 40.6539 21.0015 39.8567 21.4232 39.4354C22.2639 38.7618 23.2333 38.1311 24.3265 37.5433C25.5888 36.8697 26.4296 36.577 26.8512 36.6603C28.9542 37.2481 30.9739 38.0907 32.9103 39.1831C34.7609 40.1922 36.0232 41.1181 36.6973 41.9582C37.2023 42.6318 36.9927 43.429 36.0662 44.3548V44.2287C35.9828 43.5551 33.4153 41.9582 28.366 39.4354C27.5253 39.0141 26.5558 39.0141 25.4626 39.4354Z" fill="#B58325"/>
<path fill-rule="evenodd" clip-rule="evenodd" d="M32.1529 31.6147L34.6776 29.8488C36.4449 28.6706 37.7072 27.9567 38.4646 27.7044C39.3053 27.4521 40.2318 27.495 41.2417 27.8305C41.9158 27.9995 43.2614 28.6302 45.2812 29.7226C47.0484 30.6485 48.3511 31.6147 49.1944 32.6238C49.9518 33.6329 50.1209 34.3898 49.6993 34.8943L48.0583 36.2819C47.8058 34.9372 47.5963 34.0946 47.4271 33.7591C47.2605 33.0855 46.4172 32.3312 44.9025 31.4886C43.4735 30.7317 42.2516 30.2272 41.2417 29.9749C39.1387 29.5536 37.2856 29.932 35.6875 31.1102L30.8906 35.1466L30.2595 34.5159C29.9237 33.9281 30.0499 33.2974 30.6382 32.6238C31.1431 32.2025 31.648 31.867 32.1529 31.6147Z" fill="#B58325"/>
<path fill-rule="evenodd" clip-rule="evenodd" d="M60.1766 23.0372C61.5223 23.794 62.2367 24.508 62.3226 25.1816C62.3226 25.5171 62.0701 25.9384 61.5652 26.443C60.472 25.5171 59.1238 24.5938 57.5257 23.6679C56.5159 23.1633 55.2535 22.8278 53.7387 22.6588C52.0548 22.4897 50.6258 22.6159 49.4468 23.0372C47.932 23.5417 46.0385 24.677 43.7664 26.443L43.009 25.8123C42.7565 25.391 43.3877 24.6341 44.9024 23.5417C45.9981 22.7017 47.0484 22.0281 48.0583 21.5235C50.2471 20.6834 51.719 20.2192 52.4764 20.136C54.2437 19.9669 56.8113 20.9357 60.1766 23.0372Z" fill="#B58325"/>
<path fill-rule="evenodd" clip-rule="evenodd" d="M70.149 14.9643C73.6835 16.647 74.8221 17.9084 73.5598 18.7484C71.2851 17.4038 69.0987 16.3518 66.9932 15.5949C64.6351 14.7549 62.575 14.7549 60.8078 15.5949C59.7979 16.0163 58.5356 16.8992 57.0208 18.2439C56.5159 17.318 56.7254 16.4779 57.652 15.7211L61.6914 13.1983C62.618 12.6105 63.8778 12.5676 65.4784 13.0722C65.7309 13.1554 67.2886 13.7861 70.149 14.9643Z" fill="#B58325"/>
<path fill-rule="evenodd" clip-rule="evenodd" d="M52.6026 51.5446C52.6026 51.8801 52.2669 52.3847 51.5928 53.0583C49.6564 51.2923 47.8058 50.1167 46.0385 49.5289C44.0188 48.9385 42.5873 48.603 41.7466 48.5198C40.2318 48.3507 38.8862 48.6459 37.7072 49.4027C36.1091 50.3286 34.4251 51.6733 32.6579 53.4417L32.2792 53.1844C31.186 52.4276 30.9739 51.6707 31.648 50.9164C32.3221 50.1596 33.7107 49.0672 35.8137 47.6368C38.0859 45.9541 39.6436 45.0711 40.4843 44.9878C41.8325 44.9046 43.9759 45.7018 46.9222 47.3845C47.5104 47.72 48.6465 48.3507 50.3305 49.2766C51.7619 50.1999 52.5193 50.9568 52.6026 51.5446Z" fill="#B58325"/>
<path fill-rule="evenodd" clip-rule="evenodd" d="M58.1569 36.4077C62.3655 38.6782 64.6806 40.318 65.0997 41.3272C65.438 41.915 64.8068 42.798 63.2062 43.9761L60.6815 41.3272C59.6717 40.318 58.326 39.4351 56.6421 38.6782C54.7915 37.9214 53.4004 37.712 52.4764 38.0475C51.6357 38.2998 49.2373 40.0229 45.2812 43.2193C44.4404 42.5457 44.1451 41.915 44.3975 41.3272C44.5641 40.9916 45.0287 40.4871 45.7861 39.8135C47.2176 38.3856 49.1111 36.9955 51.4666 35.6509C53.2338 34.5585 55.4631 34.8108 58.1569 36.4077Z" fill="#B58325"/>
<path fill-rule="evenodd" clip-rule="evenodd" d="M76.0819 33.759C74.3147 31.993 72.7974 30.8149 71.535 30.2271C68.508 28.9657 65.9429 28.7966 63.8374 29.7225C62.4084 30.2271 60.4291 31.6575 57.9044 34.0113C57.3995 33.5067 57.147 33.1712 57.147 33.0021C56.9804 32.4143 57.6949 31.4885 59.293 30.2271C60.6386 29.1347 61.8606 28.335 62.9537 27.8304C65.3118 26.6548 67.2886 26.3596 68.8867 26.9474C72.9286 28.6301 75.577 29.9319 76.8393 30.8578C77.6801 31.4456 77.4301 32.4143 76.0819 33.759Z" fill="#B58325"/>
<path fill-rule="evenodd" clip-rule="evenodd" d="M85.0445 21.9016C86.0518 22.3229 86.8547 22.9107 87.4429 23.6676C87.9453 24.5077 87.9453 25.1813 87.4429 25.6858L86.5593 26.4427C86.3926 25.4335 86.1402 24.8028 85.8019 24.5506C85.1278 24.046 83.9084 23.4153 82.1411 22.6585C80.0381 21.8184 78.4804 21.44 77.4705 21.5232C76.2082 21.609 74.2314 22.994 71.535 25.6858L70.2727 24.8028C69.5153 24.215 70.9039 22.7846 74.4384 20.5141C76.2915 19.3359 78.3945 19.1266 80.7526 19.8834C81.9316 20.3047 83.3605 20.9758 85.0445 21.9016Z" fill="#B58325"/>
<path fill-rule="evenodd" clip-rule="evenodd" d="M64.0898 57.4731C64.9306 57.8944 65.645 58.6083 66.2358 59.62C66.9099 60.8814 66.867 61.888 66.1096 62.6448C65.7713 61.4692 64.1732 60.0387 61.3127 58.3586C60.3029 57.7707 59.1668 57.3898 57.9044 57.2233C56.5563 57.0568 55.506 57.1804 54.7486 57.5992C53.4863 58.3586 51.7594 59.8293 49.5731 62.0141L48.6894 61.005C48.2678 60.3314 48.9848 59.1961 50.8354 57.5967C52.2669 56.3353 53.6125 55.3287 54.8748 54.5718C56.3063 53.815 58.2831 54.1934 60.8078 55.7071L61.8177 56.0855L64.0898 57.4731Z" fill="#B58325"/>
<path fill-rule="evenodd" clip-rule="evenodd" d="M74.3147 48.8958C73.0524 48.0557 71.6638 47.5082 70.149 47.2559C68.4676 46.8346 67.0765 46.8775 65.9858 47.3821C64.6377 47.9699 62.83 49.6526 60.5578 52.4277C59.8837 52.0089 59.4647 51.6305 59.2955 51.2924C58.9597 50.7046 59.2955 49.8645 60.3054 48.7696C60.8936 48.1818 61.4844 47.6747 62.0726 47.2559L65.1022 45.2377C66.2812 44.1428 68.0056 43.8073 70.2778 44.2286C71.3735 44.4809 72.3404 44.8164 73.1811 45.2377L74.8221 46.2468C78.5233 48.096 80.5455 49.6526 80.8788 50.914C80.9621 51.5018 80.6692 52.1325 79.9952 52.8061C79.8285 52.468 79.0686 51.8802 77.723 51.0401L74.3147 48.8958Z" fill="#B58325"/>
<path fill-rule="evenodd" clip-rule="evenodd" d="M80.5001 34.0112C81.8457 33.6756 84.075 34.3063 87.1879 35.9033C89.7126 37.1647 91.7323 38.4261 93.2471 39.6875C94.1711 40.4443 93.7949 41.6628 92.111 43.3455C92.0277 42.7577 90.0913 41.244 86.3043 38.8045C83.358 36.8695 81.212 36.4078 79.8664 37.4169L74.3122 42.3364C73.3023 41.6628 72.7545 41.1608 72.6711 40.8227C72.5878 40.3182 73.7239 39.0568 76.082 37.0385C78.3541 35.1893 79.8285 34.1802 80.5001 34.0112Z" fill="#B58325"/>
<path fill-rule="evenodd" clip-rule="evenodd" d="M101.834 35.2725C100.826 33.2542 100.069 31.9928 99.5638 31.4883C98.8064 30.7314 97.5037 29.9746 95.6506 29.2177C93.8 28.3777 92.621 28.1228 92.116 28.4609L87.4454 32.3712C86.6022 31.6977 86.226 31.1527 86.3093 30.7314C86.476 30.1436 87.405 29.1749 89.0865 27.8302C90.7704 26.4856 91.9065 25.812 92.4973 25.812C93.9262 25.812 96.6604 27.1163 100.703 29.7223C102.97 31.1527 103.349 33.0019 101.834 35.2725Z" fill="#B58325"/>
<path d="M57.2365 44.0644C61.3246 44.0644 64.6386 40.7504 64.6386 36.6623C64.6386 32.5743 61.3246 29.2603 57.2365 29.2603C53.1485 29.2603 49.8345 32.5743 49.8345 36.6623C49.8345 40.7504 53.1485 44.0644 57.2365 44.0644Z" fill="#102542"/>
<path d="M56.8994 41.8628V62.5287" stroke="#102542" stroke-width="3" stroke-linecap="round"/>
<path d="M56.8994 62.5283C52.1146 65.9058 49.7732 66.9839 49.7732 73.2176C49.7732 75.7764 49.3411 81.1967 51.9111 82.4816" stroke="#102542" stroke-width="3" stroke-linecap="round"/>
<path d="M56.8994 61.8159C68.1612 64.0133 66.1634 73.5124 66.1634 83.1945" stroke="#102542" stroke-width="3" stroke-linecap="round"/>
<path d="M54.8787 52.2603C53.2688 53.5181 50.0789 56.405 53.4535 57.2486" stroke="#102542" stroke-width="3" stroke-linecap="round"/>
<path d="M55.4742 52.5521C58.9833 52.5521 59.4042 52.12 61.1751 54.3337C61.9461 55.2975 62.4711 56.8925 61.1751 57.5405" stroke="#102542" stroke-width="3" stroke-linecap="round"/>
<path d="M63.8774 48.6466C63.6608 48.1451 63.3486 47.6907 62.958 47.3087C62.5672 46.9257 62.1065 46.6212 61.6008 46.412C61.0764 46.1942 60.514 46.0827 59.9462 46.084C59.1496 46.084 58.3724 46.3021 57.697 46.7141C57.5354 46.8127 57.3819 46.921 57.2365 47.0389C57.0911 46.921 56.9376 46.8127 56.776 46.7141C56.1006 46.3021 55.3234 46.084 54.5268 46.084C53.9532 46.084 53.3974 46.1938 52.8722 46.412C52.3649 46.622 51.9076 46.9242 51.5149 47.3087C51.1239 47.6903 50.8116 48.1448 50.5956 48.6466C50.371 49.1685 50.2562 49.7228 50.2562 50.2931C50.2562 50.8312 50.3661 51.3919 50.5842 51.9622C50.7668 52.4389 51.0286 52.9333 51.3631 53.4326C51.893 54.2228 52.6218 55.0468 53.5266 55.8822C55.0261 57.2669 56.511 58.2235 56.574 58.2623L56.957 58.5079C57.1266 58.6161 57.3448 58.6161 57.5144 58.5079L57.8974 58.2623C57.9604 58.2219 59.4437 57.2669 60.9448 55.8822C61.8496 55.0468 62.5783 54.2228 63.1083 53.4326C63.4428 52.9333 63.7062 52.4389 63.8871 51.9622C64.1053 51.3919 64.2151 50.8312 64.2151 50.2931C64.2167 49.7228 64.102 49.1685 63.8774 48.6466Z" fill="#F23B3B"/>
<path d="M43.8113 8.18014C43.8034 8.18014 43.7956 8.18014 43.7878 8.17818C43.7761 8.17623 43.4831 8.14303 42.9851 8.05318C42.4421 7.95358 42.0847 7.91256 42.0808 7.91256C41.9636 7.89889 41.8777 7.79342 41.8913 7.67428C41.905 7.55709 42.0124 7.47115 42.1296 7.48483C42.1452 7.48678 42.5046 7.52779 43.0632 7.62936C43.5456 7.71725 43.8347 7.75045 43.8366 7.75045C43.9538 7.76412 44.0398 7.86959 44.0261 7.98873C44.0124 8.09811 43.9187 8.18014 43.8113 8.18014Z" fill="#888071"/>
<path d="M42.0691 9.0415C41.9616 9.0415 41.8679 8.96142 41.8562 8.85205C41.8529 8.82395 41.8552 8.79549 41.863 8.76829C41.8708 8.7411 41.8838 8.7157 41.9014 8.69356C41.919 8.67142 41.9408 8.65298 41.9656 8.63928C41.9903 8.62559 42.0175 8.61692 42.0456 8.61377C42.0515 8.61377 42.5945 8.54931 42.8698 8.50439C43.155 8.45947 43.7956 8.35791 43.7956 8.35791L43.862 8.78173L42.9382 8.92822C42.6531 8.97509 42.1179 9.03759 42.0945 9.03955C42.0847 9.03955 42.0769 9.0415 42.0691 9.0415Z" fill="#888071"/>
<path d="M42.407 9.93981C42.3132 9.93981 42.2273 9.87921 42.1999 9.78351C42.1667 9.67031 42.2331 9.55111 42.3484 9.51791L43.8874 9.07847C43.9418 9.06458 43.9995 9.07248 44.0481 9.10048C44.0967 9.12849 44.1325 9.17439 44.1478 9.22839C44.1631 9.28241 44.1567 9.34021 44.1299 9.38961C44.1032 9.43891 44.0582 9.47591 44.0046 9.49251L42.4656 9.93201C42.448 9.93591 42.4265 9.93981 42.407 9.93981Z" fill="#888071"/>
<path d="M50.3718 15.7466L48.2546 17.3697C48.2546 17.3697 48.3366 20.7525 48.282 20.8892C48.2273 21.0259 47.4851 21.8794 47.5671 22.3736C47.6316 22.7583 47.9245 22.8951 48.7214 22.9244C49.5183 22.9537 51.1413 22.5943 51.1413 22.5943L50.3718 15.7466Z" fill="#B85C3E"/>
<path d="M56.5866 17.0376L55.0202 17.9166C55.0202 17.9166 55.2409 18.5767 55.2409 19.5123C55.2409 20.4478 55.1589 21.0337 55.1042 21.2271C55.0495 21.4205 54.5906 21.7857 54.6374 22.3169C54.6589 22.563 54.9675 22.7564 55.5163 22.7291C56.0652 22.7017 56.864 22.647 56.864 22.647L57.6609 17.4498L56.5866 17.0376Z" fill="#B85C3E"/>
<path d="M46.4597 4.69192C46.4597 4.69192 46.2038 3.79348 46.4226 2.3638C46.6433 0.934111 47.0085 0.182157 47.3581 0.145047C47.7058 0.107938 48.3659 0.768091 48.8796 1.55716C49.3933 2.34622 49.8152 3.7388 49.8152 3.7388L46.4597 4.69192Z" fill="#FB8B02"/>
<path d="M52.4343 18.2563C52.4343 18.2563 52.4519 19.9067 52.489 20.6391C52.5261 21.3715 52.4909 22.9985 52.3425 23.1782C52.114 23.4536 51.8835 23.4614 51.3894 23.4809C51.0945 23.4926 51.4812 21.6664 51.4812 21.5922C51.4812 21.518 51.4988 17.1372 51.4988 17.1372L52.4343 18.2563Z" fill="#FB8B02"/>
<path d="M47.5399 12.557C47.5399 12.557 47.1004 13.9496 47.2098 14.9945C47.3192 16.0394 47.9246 17.3597 48.5301 17.891C49.1356 18.4222 49.6844 18.6976 49.7391 18.8265C49.7938 18.9554 50.0145 20.7699 49.9403 21.1546C49.866 21.5394 49.3348 22.5296 49.4266 22.9144C49.5184 23.2992 49.8817 23.5414 50.8192 23.5199C52.0379 23.4925 51.9735 23.3089 52.0653 22.5492C52.1278 22.0374 52.0477 18.4984 52.0477 18.4984C52.0477 18.4984 52.7996 18.5726 53.8621 18.4984C54.9246 18.4242 56.2449 17.9476 56.2449 17.9476C56.2449 17.9476 56.9969 20.2933 56.7391 21.0081C56.4832 21.723 56.0614 22.1273 56.1336 22.6214C56.2078 23.1156 56.8485 23.3363 57.6375 23.2621C58.4266 23.1878 59.0301 22.6761 59.0672 21.9964C59.1043 21.3187 59.0848 17.5609 59.1961 17.2679C59.3055 16.9749 59.7098 15.9671 59.6727 14.9574C59.6356 13.9476 59.5633 13.5453 59.5633 13.5453C59.5633 13.5453 60.5106 13.1839 61.3875 12.5199C62.0555 12.014 62.5574 11.348 62.825 10.3558C63.2645 8.72491 62.661 7.11162 61.45 6.56084C60.286 6.03155 59.1395 6.23076 59.1043 7.07451C59.0692 7.91826 59.8192 7.73467 60.3875 7.95342C60.9559 8.17412 61.5965 9.18194 60.9188 10.1722C60.241 11.1624 59.0496 11.473 58.6824 11.5101C58.3153 11.5472 57.6375 10.9789 56.2254 10.9417C54.8133 10.9046 52.7801 11.932 52.7235 11.8031C52.6688 11.6742 54.7391 10.3363 54.8856 8.596C55.0223 6.98272 54.6844 6.23076 54.6844 6.23076C54.6844 6.23076 54.4285 3.5003 54.0614 2.21709C53.6942 0.93389 53.1864 -0.0192362 52.8563 0.000294791C52.5262 0.0178738 51.4637 1.17412 51.0789 1.74248C50.6942 2.31084 50.2723 3.22686 50.2723 3.22686C50.2723 3.22686 48.6317 3.16631 47.9071 3.42803C47.2469 3.66631 46.495 4.06866 46.0184 4.82061C45.5418 5.57256 45.3953 6.01201 45.1746 6.12139C44.9539 6.23076 43.909 6.45147 43.8172 6.58037C43.7254 6.70928 43.4871 8.41436 43.5418 8.67022C43.5965 8.92608 43.6395 9.52376 43.9442 9.86166C44.2918 10.2464 45.2547 10.8968 46.0164 11.3831C46.7528 11.8519 47.4676 12.2269 47.5399 12.557Z" fill="#FFB800"/>
<path d="M54.2956 14.352C54.9734 14.3422 54.9558 13.5278 54.9656 12.518C54.9734 11.6352 54.9382 11.1157 54.9382 11.1157C54.9382 11.1157 54.5495 11.1684 54.2058 11.2993C53.8659 11.4282 53.573 11.5473 53.573 11.5473V12.9672C53.571 13.4536 53.6257 14.3618 54.2956 14.352Z" fill="#FF9B31"/>
<path d="M55.487 10.9888C55.487 10.9888 55.487 11.8404 55.4968 12.565C55.5066 13.3443 55.4323 14.188 56.2116 14.1783C56.8816 14.1705 56.8816 13.3169 56.8894 12.354C56.8933 11.8501 56.907 10.9888 56.907 10.9888C56.907 10.9888 56.5769 10.9244 56.1824 10.9341C55.8718 10.9419 55.487 10.9888 55.487 10.9888Z" fill="#FF9B31"/>
<path d="M48.7156 7.27191C48.573 7.61762 48.2663 8.11176 47.7605 7.98285C47.4363 7.90082 47.4128 7.20356 47.6023 6.78949C47.8269 6.30121 48.1257 6.08051 48.4753 6.12152C48.8601 6.1684 48.8972 6.82856 48.7156 7.27191Z" fill="#2C312C"/>
<path d="M45.3679 7.16664C45.3581 6.94593 44.7898 6.79164 44.3503 6.62562C43.9773 6.48695 43.7722 6.47914 43.6726 6.57093C43.573 6.66273 43.4519 6.90101 43.3972 7.2682C43.3425 7.63539 43.362 8.25648 43.4519 8.6432C43.5437 9.03773 43.6902 9.53189 44.3406 9.78969C44.8991 10.0104 45.2292 9.70769 45.4675 9.54159C45.7702 9.33269 45.6394 8.83656 45.2116 9.09242C44.8913 9.28579 44.6706 9.34049 44.4226 9.15687C44.0827 8.90492 44.0007 8.15882 44.0281 8.09437C44.1472 7.81507 44.6238 7.74671 44.8171 7.6725C45.0105 7.59828 45.3777 7.36 45.3679 7.16664Z" fill="#2C312C"/>
<path d="M49.2097 9.11388H49.1941C49.1882 9.11388 48.571 9.06896 48.1862 9.0592L47.0866 9.03185C47.0866 9.03185 46.8562 9.05138 46.8562 8.82482C46.8562 8.58459 47.0964 8.6217 47.0964 8.6217L48.196 8.64904C48.5905 8.65881 49.198 8.70178 49.2234 8.70373C49.3366 8.71154 49.4206 8.81115 49.4128 8.92248C49.405 9.03185 49.3152 9.11388 49.2097 9.11388Z" fill="#888071"/>
<path d="M48.8601 10.4519C48.8308 10.4519 48.7995 10.446 48.7722 10.4324C48.7683 10.4304 48.282 10.198 47.8425 10.0476C47.3855 9.89329 46.8738 9.72729 46.8738 9.72729C46.7663 9.69209 46.7058 9.57689 46.7409 9.46949C46.7761 9.36209 46.8913 9.30149 46.9988 9.33669C46.9988 9.33669 47.5144 9.50269 47.9734 9.65889C48.4382 9.81709 48.9284 10.0515 48.9499 10.0632C49.0515 10.1121 49.0945 10.2351 49.0456 10.3367C49.0105 10.4089 48.9363 10.4519 48.8601 10.4519Z" fill="#888071"/>
<path d="M47.862 11.2132C47.823 11.2132 47.782 11.2015 47.7468 11.1781C47.7429 11.1761 47.3992 10.9417 47.1687 10.7992C46.9284 10.6527 46.4968 10.3753 46.4968 10.3753C46.4968 10.3753 46.3034 10.2621 46.4284 10.0824C46.5534 9.90266 46.7175 10.0277 46.7175 10.0277C46.7175 10.0277 47.1472 10.3011 47.3835 10.4476C47.6238 10.5941 47.9636 10.8285 47.9792 10.8382C48.073 10.9027 48.0964 11.0296 48.032 11.1234C47.9909 11.182 47.9265 11.2132 47.862 11.2132Z" fill="#888071"/>
<path d="M52.532 1.66861C52.4382 1.63541 51.8308 2.34244 51.5281 3.04361C51.2253 3.74479 51.1159 4.12955 51.1433 4.2526C51.155 4.30729 51.5046 4.61002 52.0222 5.02213C52.5593 5.44791 52.9011 5.70963 53.0534 5.69596C53.2038 5.68229 53.2468 4.51432 53.1218 3.45572C52.9968 2.39713 52.6824 1.7233 52.532 1.66861Z" fill="#FED0AB"/>
<path d="M28.4193 51.312C27.02 49.0172 25.8945 45.1776 26.7606 42.3628C27.5055 39.9418 31.8798 38.4501 29.808 35.3423" stroke="#DEFCB9" stroke-width="1.5" stroke-linecap="round"/>
<path d="M29.8081 36.0366C27.4549 34.1982 25.9892 32.836 25.9892 29.7876C25.9892 28.2584 25.8053 27.5414 26.8571 26.4895C27.4106 25.936 28.0165 25.5883 28.6123 25.1009C29.0996 24.7021 30.9199 24.2329 30.2902 24.2329C29.0323 24.2329 28.3799 26.4083 28.4194 27.4346C28.4708 28.7711 30.5489 29.5026 31.1967 30.6362C31.5595 31.2711 32.2094 31.2441 32.5082 32.1406C32.69 32.686 33.3086 33.7804 33.2797 34.3008C33.2056 35.6351 30.8192 36.0366 29.8081 36.0366Z" stroke="#DEFCB9" stroke-width="1.5" stroke-linecap="round"/>
<path d="M26.6835 28.0518C27.6301 30.4775 28.4332 32.2032 30.078 34.0308C30.2976 34.2748 31.5052 35.6971 31.5052 35.5159C31.5052 35.3735 31.0929 33.304 31.0037 33.2786C30.2065 33.0508 27.8291 30.6728 27.725 29.7876C27.6131 28.8372 27.0306 28.2179 27.0306 27.1839C27.0306 26.1356 25.7414 28.2504 25.6612 28.6111C25.4375 29.6178 25.5358 31.2089 25.642 32.2178C25.7317 33.0706 27.6452 33.7521 28.265 34.1465C28.6946 34.4199 30.4261 36.2363 31.1195 35.6123C31.956 34.8594 31.891 33.9377 31.891 32.9121C31.891 31.5775 29.5687 29.7876 28.265 29.7876C27.9105 29.7876 26.7805 31.6257 26.8377 32.1406C26.8896 32.6075 29.1826 32.0097 29.4608 31.8706" stroke="#DEFCB9" stroke-width="1.5" stroke-linecap="round"/>
<path d="M31.9636 24.2603C60.4636 -15.2397 85.9636 32.927 85.4636 37.2603" stroke="#087CA7" stroke-width="2"/>
<path d="M26.9339 32.5889C27.6982 32.9184 28.2198 33.2639 28.8752 33.7008C29.2542 33.9534 29.6946 34.3563 30.1106 34.4949" stroke="#DEFCB9" stroke-width="1.5" stroke-linecap="round"/>
<path d="M30.4283 31.4768C30.4545 31.5038 31.5582 32.5504 31.5578 32.5534C31.5228 32.8336 31.0614 32.2664 30.8695 32.0592C30.584 31.7508 30.2241 31.4855 29.8636 31.2827C29.4767 31.0651 30.6866 31.6901 30.9578 32.0416C31.4609 32.6938 30.5861 33.0038 30.1107 33.1887C29.7724 33.3202 29.8362 32.7362 29.6342 32.6239C29.3978 32.4926 28.9531 32.4978 28.6812 32.4298" stroke="#DEFCB9" stroke-width="1.5" stroke-linecap="round"/>
<path d="M26.2987 32.1124C26.3447 33.078 27.0635 33.6957 27.8164 34.2479C28.1876 34.5201 28.6854 34.4949 29.1224 34.4949C29.3753 34.4949 30.0601 34.6738 29.8812 34.4949C29.5117 34.1254 28.7929 33.706 28.3458 33.3831C27.734 32.9412 27.1538 32.3737 26.5369 31.9624C25.7059 31.4085 26.3598 31.5687 26.7752 30.8418" stroke="#DEFCB9" stroke-width="1.5" stroke-linecap="round"/>
<path d="M93.0081 33.8594V38.3067" stroke="#3EA524" stroke-width="1.5" stroke-linecap="round"/>
<path d="M91.1021 36.083H95.3906" stroke="#3EA524" stroke-width="1.5" stroke-linecap="round"/>
<path d="M89.5138 35.9243V41.007" stroke="#3EA524" stroke-width="1.5" stroke-linecap="round"/>
<path d="M87.1313 38.3066H91.261" stroke="#3EA524" stroke-width="1.5" stroke-linecap="round"/>
<path d="M85.0665 38.3066V43.0716" stroke="#3EA524" stroke-width="1.5" stroke-linecap="round"/>
<path d="M81.4135 40.2129H86.9726" stroke="#3EA524" stroke-width="1.5" stroke-linecap="round"/>
<path d="M81.731 40.8481V45.2954" stroke="#3EA524" stroke-width="1.5" stroke-linecap="round"/>
<path d="M78.7133 43.2305H84.5901" stroke="#3EA524" stroke-width="1.5" stroke-linecap="round"/>
<path d="M31.4636 24.26C46.1303 16.0933 78.5636 6.66004 90.9636 34.26" stroke="#087CA7" stroke-width="2"/>
</svg>
